#!OML:ASF F:\VICON\USERDATA\INSTALL\rory3\rory3.ASF
:FULLY-SPECIFIED
:DEGREES
66
root -0.269696 18.093 6.32399 3.94694 -2.41577 -5.34512
lowerback 14.011 1.01771 6.92455
upperback 0.956489 2.51284 1.13702
thorax -6.60553 1.03762 -3.1851
lowerneck -6.24052 -0.564727 -1.08126
upperneck -4.2069 -0.671822 0.829973
head -0.256613 -0.319161 0.41606
rclavicle -8.4732e-015 1.5207e-014
rhumerus -26.7556 16.6903 -84.3162
rradius 105.436
rwrist 0.0629785
rhand -42.7102 40.3857
rfingers 7.12502
rthumb -15.5792 10.9931
lclavicle -8.4732e-015 1.5207e-014
lhumerus -63.4521 -8.19007 92.9751
lradius 101.996
lwrist 30.4199
lhand -40.4617 12.9553
lfingers 7.12502
lthumb -13.4128 42.5035
rfemur 19.981 5.87255 31.8519
rtibia 15.1231
rfoot 17.1167 -4.14042
rtoes 3.72558
lfemur -45.5591 3.64329 -14.2315
ltibia 87.2089
lfoot 6.53605 -9.02909
ltoes -11.7793
67
root -0.26961 18.1724 6.93516 3.79768 -2.08089 -5.10547
lowerback 13.3412 1.02349 6.83088
upperback 1.05851 2.43155 0.949103
thorax -6.1258 1.01945 -3.2918
lowerneck -6.39521 -0.697759 -1.33729
upperneck -4.02461 -0.828546 1.0616
head -0.171928 -0.393331 0.526017
rclavicle 1.03865e-014 -1.88845e-015
rhumerus -27.29 17.5369 -84.5398
rradius 105.976
rwrist 0.584706
rhand -42.7145 40.0832
rfingers 7.12502
rthumb -15.5834 10.691
lclavicle 1.03865e-014 -1.88845e-015
lhumerus -64.0516 -7.50625 92.6397
lradius 102.375
lwrist 29.7579
lhand -39.72 10.8367
lfingers 7.12502
lthumb -12.6978 40.4307
rfemur 23.7444 6.52819 31.8003
rtibia 10.4465
rfoot 22.6893 -5.98221
rtoes 9.37221
lfemur -45.3422 2.48709 -14.4979
ltibia 82.5645
lfoot 5.8507 -9.28664
ltoes -11.5923
68
root -0.259551 18.2412 7.54983 3.7269 -2.15791 -4.99649
lowerback 12.6112 1.22985 6.9921
upperback 1.04976 2.65012 0.678964
thorax -5.68449 1.13675 -3.67781
lowerneck -6.02442 -0.824249 -1.37387
upperneck -4.00994 -0.996993 1.2197
head -0.223888 -0.477639 0.578904
rclavicle -4.92116e-014 -1.59028e-014
rhumerus -28.1128 18.0134 -84.9178
rradius 106.462
rwrist 1.06123
rhand -42.3555 39.266
rfingers 7.12502
rthumb -15.2376 9.84718
lclavicle -4.92116e-014 -1.59028e-014
lhumerus -64.8262 -7.16543 92.2401
lradius 102.854
lwrist 29.2813
lhand -40.3827 11.0475
lfingers 7.12502
lthumb -13.3367 40.6008
rfemur 28.2835 7.61291 31.8695
rtibia 4.19775
rfoot 29.7071 -7.09846
rtoes 14.361
lfemur -44.7863 1.66458 -14.6131
ltibia 77.8388
lfoot 4.91798 -9.67158
ltoes -13.3467
69
root -0.252777 18.3008 8.14779 3.81577 -1.72865 -4.99116
lowerback 11.9139 1.30066 7.34967
upperback 0.805479 2.72743 0.363921
thorax -5.51445 1.16444 -4.20118
lowerneck -5.31012 -0.930654 -1.03589
upperneck -3.79958 -1.16472 1.30775
head -0.274431 -0.567865 0.549811
rclavicle 2.76249e-014 1.50082e-014
rhumerus -29.2876 18.3358 -85.5705
rradius 107.057
rwrist 1.17944
rhand -41.859 37.677
rfingers 7.12502
rthumb -14.7593 8.22247
lclavicle 2.76249e-014 1.50082e-014
lhumerus -65.7801 -7.14072 91.7988
lradius 103.365
lwrist 29.1484
lhand -41.1064 12.2015
lfingers 7.12502
lthumb -14.0342 41.7077
rfemur 31.5576 8.21087 32.1242
rtibia 2.22639e-014
rfoot 35.2979 -6.65225
rtoes 15.0048
lfemur -44.3458 0.360159 -14.4942
ltibia 72.923
lfoot 4.42174 -9.973
ltoes -14.0403
70
root -0.264184 18.3664 8.71745 4.14874 -0.984217 -5.14779
lowerback 11.462 1.1882 7.49102
upperback 0.571706 2.56566 0.291243
thorax -5.52112 1.07502 -4.32012
lowerneck -5.31618 -0.947151 -0.942227
upperneck -3.54599 -1.19266 1.35336
head -0.196312 -0.582517 0.547159
rclavicle -1.19395e-014 -1.53064e-014
rhumerus -29.9983 19.1505 -86.0324
rradius 107.56
rwrist 1.06747
rhand -41.5322 35.5913
rfingers 7.12502
rthumb -14.4444 6.11394
lclavicle -1.19395e-014 -1.53064e-014
lhumerus -66.2509 -6.81855 91.4345
lradius 103.879
lwrist 29.5096
lhand -40.7775 12.1149
lfingers 7.12502
lthumb -13.7172 41.6428
rfemur 32.2857 8.48895 32.6835
rtibia -1.90833e-014
rfoot 37.9198 -5.1027
rtoes 15.2486
lfemur -44.3926 -1.0104 -14.0419
ltibia 67.7903
lfoot 4.777 -10.1124
ltoes -12.3369
71
root -0.285591 18.451 9.28623 4.5246 -0.621064 -5.17317
lowerback 11.3645 1.165 7.27664
upperback 0.363876 2.50662 0.247817
thorax -5.70192 1.03837 -4.23776
lowerneck -5.98029 -1.02691 -1.03853
upperneck -3.04791 -1.29244 1.3598
head 0.0652894 -0.628406 0.559842
rclavicle 3.57812e-015 3.27995e-015
rhumerus -30.3159 19.9141 -86.3418
rradius 107.68
rwrist 1.21025
rhand -41.3089 34.9463
rfingers 7.12502
rthumb -14.2293 5.45378
lclavicle 3.57812e-015 3.27995e-015
lhumerus -66.5246 -6.35388 91.1456
lradius 104.563
lwrist 29.8839
lhand -40.1203 11.1494
lfingers 7.12502
lthumb -13.0838 40.719
rfemur 32.9793 9.09476 33.1968
rtibia -2.54444e-014
rfoot 39.6943 -3.57645
rtoes 19.0645
lfemur -44.6411 -1.91003 -13.7507
ltibia 62.3069
lfoot 5.98076 -9.9995
ltoes -11.9028
72
root -0.283245 18.4837 9.86836 4.78085 -0.89781 -5.16697
lowerback 11.0109 1.36845 7.23069
upperback 0.179559 2.74045 0.0934036
thorax -5.66447 1.14967 -4.39947
lowerneck -5.8066 -1.08954 -0.9551
upperneck -3.07479 -1.38246 1.29837
head 0.0284819 -0.675128 0.526325
rclavicle 4.30866e-014 -1.78906e-015
rhumerus -30.9666 20.383 -86.7575
rradius 107.406
rwrist 1.51944
rhand -41.249 36.7243
rfingers 7.12502
rthumb -14.1716 7.22765
lclavicle 4.30866e-014 -1.78906e-015
lhumerus -66.8027 -6.07068 90.9243
lradius 105.118
lwrist 30.3005
lhand -40.0205 10.9726
lfingers 7.12502
lthumb -12.9875 40.5483
rfemur 33.1269 10.271 33.721
rtibia 1.83644
rfoot 39.91 -2.30645
rtoes 27.1871
lfemur -43.7691 -2.33428 -13.5185
ltibia 57.0188
lfoot 6.13664 -9.89725
ltoes -14.5292
73
root -0.293435 18.4924 10.4177 4.70128 -0.57238 -5.53651
lowerback 11.2333 1.31666 7.52295
upperback 0.0710117 2.7324 0.0728439
thorax -5.89282 1.12437 -4.59721
lowerneck -5.77208 -1.06312 -0.800989
upperneck -3.10166 -1.3563 1.25992
head 0.0126704 -0.66377 0.489774
rclavicle 5.23301e-014 3.65764e-014
rhumerus -31.564 20.5603 -87.1352
rradius 107.092
rwrist 1.38219
rhand -40.916 40.4014
rfingers 7.12502
rthumb -13.8507 10.8826
lclavicle 5.23301e-014 3.65764e-014
lhumerus -66.7596 -5.89353 90.666
lradius 105.538
lwrist 30.7321
lhand -40.7625 12.6266
lfingers 7.12502
lthumb -13.7028 42.1555
rfemur 30.3319 10.7439 34.9562
rtibia 9.99886
rfoot 36.4995 -0.757656
rtoes 25.5495
lfemur -42.8249 -3.05782 -12.8516
ltibia 51.6061
lfoot 6.75259 -9.76608
ltoes -16.8293
74
root -0.310205 18.4951 10.9656 4.50627 -0.747435 -5.76874
lowerback 11.5823 1.42645 7.44306
upperback 0.159677 2.89624 0.118752
thorax -5.97898 1.20583 -4.54154
lowerneck -6.55039 -1.05094 -0.946995
upperneck -2.6929 -1.32844 1.29812
head 0.266906 -0.644963 0.522646
rclavicle -1.23743e-014 -2.54444e-014
rhumerus -32.1143 21.1634 -87.5819
rradius 107.022
rwrist 2.11527
rhand -41.2617 37.2847
rfingers 7.12502
rthumb -14.1838 7.78895
lclavicle -1.23743e-014 -2.54444e-014
lhumerus -66.3195 -5.63586 90.5279
lradius 106.048
lwrist 31.1905
lhand -42.7738 16.3513
lfingers 7.12502
lthumb -15.6405 45.7391
rfemur 29.0326 11.675 36.0385
rtibia 15.7051
rfoot 33.8828 -0.168003
rtoes 24.2075
lfemur -41.6137 -3.3672 -12.3495
ltibia 46.4232
lfoot 7.30275 -9.10112
ltoes -17.0289
